<svg version="1.1" xmlns="http://www.w3.org/2000/svg" xmlns:xlink="http://www.w3.org/1999/xlink" width="1560" height="804"><defs/><g><path fill="none" stroke="#02063B" paint-order="fill stroke markers" d=" M 20 465.51153357106995 L 21 468.65593318244527 L 22 471.7957801298091 L 23 474.93085995861077 L 24 478.06095853989837 L 25 481.185862084944 L 26 484.3053571598457 L 27 487.4192307001051 L 28 490.52727002518026 L 29 493.62926285301137 L 30 496.7249973145205 L 31 499.814261968082 L 32 502.8968458139642 L 33 505.97253830874104 L 34 509.0411293796725 L 35 512.1024094390523 L 36 515.1561693985236 L 37 518.2022006833591 L 38 521.240295246708 L 39 524.2702455838047 L 40 527.291844746142 L 41 530.3048863556064 L 42 533.3091646185729 L 43 536.3044743399619 L 44 539.2906109372534 L 45 542.2673704544609 L 46 545.234549576061 L 47 548.191945640881 L 48 551.1393566559401 L 49 554.0765813102457 L 50 557.003418988544 L 51 559.9196697850209 L 52 562.825134516957 L 53 565.719614738331 L 54 568.6029127533745 L 55 571.4748316300744 L 56 574.3351752136236 L 57 577.1837481398188 L 58 580.0203558484035 L 59 582.8448045963571 L 60 585.656901471128 L 61 588.4564544038088 L 62 591.2432721822559 L 63 594.0171644641484 L 64 596.7779417899898 L 65 599.5254155960469 L 66 602.2593982272301 L 67 604.9797029499101 L 68 607.6861439646714 L 69 610.3785364190032 L 70 613.0566964199251 L 71 615.7204410465463 L 72 618.3695883625602 L 73 621.0039574286707 L 74 623.62336831495 L 75 626.2276421131282 L 76 628.8166009488133 L 77 631.3900679936397 L 78 633.9478674773461 L 79 636.4898246997803 L 80 639.0157660428322 L 81 641.525518982291 L 82 644.0189120996299 L 83 646.4957750937132 L 84 648.9559387924286 L 85 651.3992351642416 L 86 653.8254973296725 L 87 656.2345595726938 L 88 658.6262573520496 L 89 661.0004273124928 L 90 663.356907295944 L 91 665.6955363525653 L 92 668.016154751755 L 93 670.3186039930558 L 94 672.6027268169817 L 95 674.8683672157583 L 96 677.1153704439787 L 97 679.3435830291726 L 98 681.5528527822885 L 99 683.7430288080885 L 100 685.9139615154544 L 101 688.0655026276052 L 102 690.1975051922245 L 103 692.3098235914972 L 104 694.4023135520556 L 105 696.4748321548333 L 106 698.5272378448268 L 107 700.5593904407639 L 108 702.5711511446777 L 109 704.5623825513877 L 110 706.5329486578834 L 111 708.4827148726142 L 112 710.4115480246824 L 113 712.3193163729381 L 114 714.2058896149779 L 115 716.0711388960442 L 116 717.9149368178264 L 117 719.7371574471626 L 118 721.5376763246402 L 119 723.3163704730971 L 120 725.0731184060213 L 121 726.8078001358481 L 122 728.5202971821554 L 123 730.2104925797569 L 124 731.8782708866895 L 125 733.5235181920991 L 126 735.1461221240208 L 127 736.7459718570535 L 128 738.3229581199296 L 129 739.8769732029787 L 130 741.4079109654836 L 131 742.9156668429304 L 132 744.4001378541501 L 133 745.8612226083524 L 134 747.2988213120507 L 135 748.7128357758777 L 136 750.103169421293 L 137 751.4697272871783 L 138 752.8124160363238 L 139 754.1311439618032 L 140 755.4258209932376 L 141 756.6963587029469 L 142 757.94267031199 L 143 759.1646706960915 L 144 760.3622763914561 L 145 761.5354056004687 L 146 762.6839781972822 L 147 763.8079157332891 L 148 764.9071414424805 L 149 765.9815802466884 L 150 767.0311587607148 L 151 768.0558052973429 L 152 769.0554498722339 L 153 770.0300242087069 L 154 770.979461742402 L 155 771.9036976258277 L 156 772.8026687327886 L 157 773.6763136626979 L 158 774.5245727447711 L 159 775.3473880421016 L 160 776.1447033556167 L 161 776.9164642279181 L 162 777.6626179469997 L 163 778.3831135498485 L 164 779.0779018259257 L 165 779.746935320527 L 166 780.3901683380249 L 167 781.0075569449884 L 168 781.5990589731855 L 169 782.1646340224613 L 170 782.7042434634991 L 171 783.2178504404576 L 172 783.705419873489 L 173 784.1669184611344 L 174 784.6023146825987 L 175 785.0115787999035 L 176 785.394682859918 L 177 785.7516006962684 L 178 786.0823079311249 L 179 786.3867819768668 L 180 786.6650020376258 L 181 786.9169491107052 L 182 787.142605987879 L 183 787.3419572565668 L 184 787.5149893008859 L 185 787.6616903025823 L 186 787.7820502418372 L 187 787.8760608979514 L 188 787.9437158499074 L 189 787.9850104768071 L 190 787.9999419581881 L 191 787.9885092742157 L 192 787.9507132057535 L 193 787.8865563343088 L 194 787.7960430418575 L 195 787.679179510544 L 196 787.5359737222593 L 197 787.3664354580958 L 198 787.1705762976792 L 199 786.9484096183775 L 200 786.6999505943874 L 201 786.4252161956979 L 202 786.1242251869315 L 203 785.7969981260619 L 204 785.4435573630108 L 205 785.0639270381199 L 206 784.6581330805041 L 207 784.2262032062786 L 208 783.7681669166673 L 209 783.2840554959871 L 210 782.773902009511 L 211 782.2377413012102 L 212 781.6756099913744 L 213 781.0875464741096 L 214 780.4735909147167 L 215 779.8337852469481 L 216 779.1681731701426 L 217 778.4768001462423 L 218 777.759713396686 L 219 777.0169618991849 L 220 776.2485963843769 L 221 775.4546693323618 L 222 774.6352349691169 L 223 773.7903492627931 L 224 772.9200699198927 L 225 772.0244563813276 L 226 771.1035698183589 L 227 770.1574731284204 L 228 769.186230930821 L 229 768.1899095623321 L 230 767.1685770726565 L 231 766.1223032197803 L 232 765.0511594652089 L 233 763.9552189690854 L 234 762.8345565851944 L 235 761.689248855849 L 236 760.5193740066627 L 237 759.3250119412071 L 238 758.1062442355542 L 239 756.863154132704 L 240 755.5958265369004 L 241 754.3043480078303 L 242 752.9888067547131 L 243 751.6492926302751 L 244 750.2858971246126 L 245 748.8987133589429 L 246 747.4878360792447 L 247 746.053361649786 L 248 744.5953880465429 L 249 743.1140148505074 L 250 741.609343240886 L 251 740.0814759881894 L 252 738.5305174472128 L 253 736.9565735499085 L 254 735.3597517981506 L 255 733.7401612563924 L 256 732.0979125442177 L 257 730.4331178287848 L 258 728.7458908171656 L 259 727.036346748579 L 260 725.3046023865211 L 261 723.5507760107882 L 262 721.7749874094002 L 263 719.9773578704172 L 264 718.1580101736571 L 265 716.3170685823079 L 266 714.454658834442 L 267 712.5709081344269 L 268 710.6659451442376 L 269 708.7398999746695 L 270 706.79290417645 L 271 704.8250907312552 L 272 702.8365940426258 L 273 700.8275499267887 L 274 698.798095603379 L 275 696.7483696860686 L 276 694.6785121730992 L 277 692.5886644377188 L 278 690.4789692185277 L 279 688.3495706097276 L 280 686.200614051281 L 281 684.032246318977 L 282 681.8446155144061 L 283 679.6378710548455 L 284 677.4121636630532 L 285 675.1676453569735 L 286 672.9044694393541 L 287 670.6227904872759 L 288 668.322764341594 L 289 666.0045480962951 L 290 663.6683000877665 L 291 661.3141798839827 L 292 658.9423482736058 L 293 656.5529672550042 L 294 654.1462000251876 L 295 651.7222109686604 L 296 649.2811656461947 L 297 646.8232307835212 L 298 644.3485742599432 L 299 641.8573650968684 L 300 639.3497734462665 L 301 636.8259705790465 L 302 634.2861288733588 L 303 631.7304218028221 L 304 629.1590239246744 L 305 626.5721108678514 L 306 623.9698593209895 L 307 621.3524470203594 L 308 618.7200527377256 L 309 616.072856268136 L 310 613.4110384176425 L 311 610.734780990951 L 312 608.0442667790043 L 313 605.3396795464971 L 314 602.6212040193254 L 315 599.8890258719687 L 316 597.1433317148083 L 317 594.3843090813823 L 318 591.6121464155763 L 319 588.8270330587529 L 320 586.0291592368189 L 321 583.2187160472336 L 322 580.3958954459553 L 323 577.5608902343322 L 324 574.7138940459329 L 325 571.8551013333207 L 326 568.9847073547735 L 327 566.1029081609458 L 328 563.2099005814805 L 329 560.3058822115626 L 330 557.3910513984257 L 331 554.4656072278028 L 332 551.5297495103302 L 333 548.5836787678988 L 334 545.627596219959 L 335 542.6617037697772 L 336 539.6862039906454 L 337 536.7013001120456 L 338 533.7071960057683 L 339 530.7040961719888 L 340 527.6922057252993 L 341 524.6717303806986 L 342 521.6428764395431 L 343 518.6058507754545 L 344 515.5608608201919 L 345 512.5081145494821 L 346 509.44782046881676 L 347 506.38018759920914 L 348 503.3054254629195 L 349 500.2237440691437 L 350 497.1353538996692 L 351 494.04046589449985 L 352 490.93929143744714 L 353 487.832042341694 L 354 484.71893083532615 L 355 481.6001695468384 L 356 478.47597149061085 L 357 475.3465500523595 L 358 472.21211897456317 L 359 469.07289234186305 L 360 465.92908456644204 L 361 462.78091037337884 L 362 459.6285847859833 L 363 456.4723231111087 L 364 453.3123409244476 L 365 450.1488540558068 L 366 446.9820785743659 L 367 443.81223077392053 L 368 440.63952715810797 L 369 437.4641844256211 L 370 434.28641945540636 L 371 431.1064492918519 L 372 427.9244911299622 L 373 424.7407623005242 L 374 421.5554802552633 L 375 418.3688625519905 L 376 415.18112683974414 L 377 411.992490843923 L 378 408.8031723514168 L 379 405.6133891957296 L 380 402.4233592421032 L 381 399.2333003726356 L 382 396.0434304713996 L 383 392.8539674095616 L 384 389.6651290305001 L 385 386.47713313492784 L 386 383.29019746601426 L 387 380.1045396945151 L 388 376.9203774039038 L 389 373.73792807551155 L 390 370.5574090736725 L 391 367.37903763087724 L 392 364.20303083293663 L 393 361.02960560415346 L 394 357.8589786925073 L 395 354.6913666548497 L 396 351.5269858421135 L 397 348.3660523845361 L 398 345.2087821768966 L 399 342.0553908637714 L 400 338.90609382480386 L 401 335.76110615999534 L 402 332.62064267501205 L 403 329.48491786651516 L 404 326.35414590750884 L 405 323.2285406327136 L 406 320.1083155239603 L 407 316.993683695609 L 408 313.88485787999394 L 409 310.7820504128924 L 410 307.68547321902344 L 411 304.59533779757186 L 412 301.5118552077436 L 413 298.43523605435007 L 414 295.3656904734226 L 415 292.30342811786176 L 416 289.24865814311585 L 417 286.20158919289736 L 418 283.16242938493053 L 419 280.1313862967384 L 420 277.1086669514637 L 421 274.0944778037299 L 422 271.08902472553984 L 423 268.0925129922141 L 424 265.10514726837124 L 425 262.12713159394826 L 426 259.15866937026533 L 427 256.1999633461321 L 428 253.2512156040011 L 429 250.31262754616455 L 430 247.38439988099807 L 431 244.46673260925317 L 432 241.5598250103958 L 433 238.66387562899652 L 434 235.77908226116855 L 435 232.90564194105934 L 436 230.04375092739176 L 437 227.1936046900603 L 438 224.35539789678018 L 439 221.52932439979057 L 440 218.71557722261556 L 441 215.91434854687918 L 442 213.12582969918049 L 443 210.35021113802443 L 444 207.58768244081458 L 445 204.83843229090422 L 446 202.10264846470872 L 447 199.38051781888134 L 448 196.67222627754924 L 449 193.97795881961628 L 450 191.2978994661274 L 451 188.63223126770094 L 452 185.98113629202504 L 453 183.3447956114232 L 454 180.72338929048644 L 455 178.1170963737743 L 456 175.52609487358694 L 457 172.95056175780553 L 458 170.39067293780644 L 459 167.846603256445 L 460 165.31852647611473 L 461 162.80661526687868 L 462 160.31104119467548 L 463 157.8319747096023 L 464 155.36958513427172 L 465 152.92404065224795 L 466 150.49550829655868 L 467 148.0841539382877 L 468 145.6901422752445 L 469 143.3136368207164 L 470 140.95479989229977 L 471 138.6137926008136 L 472 136.29077483929586 L 473 133.9859052720821 L 474 131.69934132396918 L 475 129.43123916946234 L 476 127.18175372210891 L 477 124.95103862391733 L 478 122.73924623486283 L 479 120.54652762248207 L 480 118.37303255155405 L 481 116.21890947387175 L 482 114.08430551810233 L 483 111.96936647973837 L 484 109.87423681113972 L 485 107.79905961166736 L 486 105.74397661790925 L 487 103.70912819400058 L 488 101.69465332203532 L 489 99.70068959257475 L 490 97.72737319524907 L 491 95.77483890945678 L 492 93.84322009515733 L 493 91.93264868376389 L 494 90.04325516913218 L 495 88.17516859864674 L 496 86.32851656440778 L 497 84.50342519451578 L 498 82.70001914445794 L 499 80.91842158859282 L 500 79.15875421173797 L 501 77.42113720085882 L 502 75.70568923685988 L 503 74.0125274864784 L 504 72.34176759428169 L 505 70.69352367476927 L 506 69.06790830457766 L 507 67.46503251479203 L 508 65.88500578336232 L 509 64.32793602762621 L 510 62.793929596937744 L 511 61.28309126540364 L 512 59.79552422472784 L 513 58.331330077162306 L 514 56.89060882856825 L 515 55.4734588815852 L 516 54.07997702891083 L 517 52.71025844668873 L 518 51.36439668800841 L 519 50.04248367651604 L 520 48.7446097001349 L 521 47.470863404899376 L 522 46.22133178889999 L 523 44.9961001963419 L 524 43.795252311715046 L 525 42.61887015407876 L 526 41.467034071460205 L 527 40.339822735365715 L 528 39.2373131354081 L 529 38.159580574047766 L 530 37.106698661450025 L 531 36.0787393104568 L 532 35.07577273167516 L 533 34.09786742868215 L 534 33.14509019334571 L 535 32.21750610126253 L 536 31.315178507313476 L 537 30.43816904133672 L 538 29.58653760391786 L 539 28.7603423622989 L 540 27.959639746405173 L 541 27.184484444991654 L 542 26.434929401907027 L 543 25.711025812477715 L 544 25.012823120011774 L 545 24.34036901242098 L 546 23.693709418964318 L 547 23.072888507110633 L 548 22.477948679522285 L 549 21.90893057115875 L 550 21.36587304650112 L 551 20.84881319689805 L 552 20.357786338031985 L 553 19.892826007507097 L 554 19.453963962558817 L 555 19.04123017788487 L 556 18.65465284359749 L 557 18.29425836329858 L 558 17.96007135227586 L 559 17.652114635821988 L 560 17.370409247675354 L 561 17.114974428583423 L 562 16.88582762498885 L 563 16.682984487837473 L 564 16.50645887150972 L 565 16.356262832873995 L 566 16.232406630463515 L 567 16.134898723775336 L 568 16.063745772692812 L 569 16.018952637030566 L 570 16.000522376202696 L 571 16.008456249013534 L 572 16.042753713572097 L 573 16.10341242732858 L 574 16.190428247234934 L 575 16.30379523002739 L 576 16.443505632632537 L 577 16.60954991269614 L 578 16.801916729235074 L 579 17.02059294341177 L 580 17.26556361943142 L 581 17.536812025562597 L 582 17.8343196352796 L 583 18.15806612852805 L 584 18.508029393112622 L 585 18.884185526207602 L 586 19.286508835989196 L 587 19.714971843390344 L 588 20.169545283977698 L 589 20.65019810995051 L 590 21.156897492260555 L 591 21.68960882285552 L 592 22.248295717041742 L 593 22.83292001596982 L 594 23.443441789240694 L 595 24.079819337633182 L 596 24.74200919595188 L 597 25.42996613599587 L 598 26.143643169647873 L 599 26.882991552083695 L 600 27.64796078510153 L 601 28.43849862057067 L 602 29.254551064000623 L 603 30.096062378228737 L 604 30.962975087227335 L 605 31.855229980028582 L 606 32.772766114769695 L 607 33.71552082285507 L 608 34.683429713235796 L 609 35.67642667680872 L 610 36.69444389093104 L 611 37.73741182405331 L 612 38.80525924046748 L 613 39.897913205173495 L 614 41.01529908886016 L 615 42.15734057300227 L 616 43.32395965507402 L 617 44.51507665387578 L 618 45.73061021497716 L 619 46.970477316272536 L 620 48.23459327365282 L 621 49.52287174678861 L 622 50.83522474502769 L 623 52.171562633404506 L 624 53.53179413876268 L 625 54.91582635598917 L 626 56.32356475435904 L 627 57.754913183992926 L 628 59.209773882423576 L 629 60.688047481273486 L 630 62.189633013041146 L 631 63.71442791799814 L 632 65.26232805119383 L 633 66.83322768956776 L 634 68.42701953917174 L 635 70.04359474249759 L 636 71.68284288591235 L 637 73.3446520071991 L 638 75.02890860320502 L 639 76.73549763759331 L 640 78.46430254869978 L 641 80.21520525749503 L 642 81.98808617564885 L 643 83.78282421369852 L 644 85.59929678931837 L 645 87.43737983569378 L 646 89.29694780999421 L 647 91.17787370194742 L 648 93.0800290425156 L 649 95.00328391266902 L 650 96.94750695226008 L 651 98.91256536899459 L 652 100.89832494750277 L 653 102.90465005850552 L 654 104.93140366807825 L 655 106.97844734700993 L 656 109.04564128025885 L 657 111.13284427650183 L 658 113.23991377777674 L 659 115.36670586922088 L 660 117.51307528889947 L 661 119.67887543772787 L 662 121.86395838948306 L 663 124.0681749009093 L 664 126.29137442190995 L 665 128.53340510583018 L 666 130.79411381982942 L 667 133.07334615533938 L 668 135.37094643861127 L 669 137.68675774134675 L 670 140.0206218914185 L 671 142.37237948367226 L 672 144.74186989081386 L 673 147.12893127438167 L 674 149.53340059579932 L 675 151.9551136275118 L 676 154.39390496420154 L 677 156.84960803408708 L 678 159.32205511029946 L 679 161.81107732233727 L 680 164.3165046676022 L 681 166.83816602300942 L 682 169.37588915667604 L 683 171.9295007396833 L 684 174.49882635791718 L 685 177.08369052397973 L 686 179.68391668917542 L 687 182.29932725556884 L 688 184.92974358811617 L 689 187.5749860268655 L 690 190.2348738992267 L 691 192.9092255323135 L 692 195.59785826535062 L 693 198.30058846215013 L 694 201.0172315236532 L 695 203.74760190053976 L 696 206.49151310590096 L 697 209.24877772797555 L 698 212.01920744295214 L 699 214.80261302783038 L 700 217.5988043733461 L 701 220.4075904969544 L 702 223.228779555876 L 703 226.06217886019917 L 704 228.9075948860399 L 705 231.76483328876148 L 706 234.63369891624723 L 707 237.51399582223027 L 708 240.40552727967545 L 709 243.308095794218 L 710 246.22150311765154 L 711 249.14555026146778 L 712 252.08003751044944 L 713 255.02476443630974 L 714 257.97952991138254 L 715 260.9441321223581 L 716 263.91836858406936 L 717 266.9020361533202 L 718 269.8949310427613 L 719 272.89684883480754 L 720 275.9075844956018 L 721 278.9269323890182 L 722 281.9546862907061 L 723 284.99063940217746 L 724 288.03458436493 L 725 291.08631327461075 L 726 294.1456176952146 L 727 297.212288673323 L 728 300.28611675237414 L 729 303.36689198696877 L 730 306.454403957211 L 731 309.54844178307917 L 732 312.6487941388298 L 733 315.75524926743003 L 734 318.86759499502256 L 735 321.98561874541684 L 736 325.10910755460674 L 737 328.23784808531843 L 738 331.37162664158006 L 739 334.5102291833184 L 740 337.6534413409761 L 741 340.8010484301558 L 742 343.9528354662817 L 743 347.10858717928403 L 744 350.2680880283008 L 745 353.4311222164013 L 746 356.5974737053246 L 747 359.76692623023376 L 748 362.9392633144892 L 749 366.1142682844328 L 750 369.29172428418775 L 751 372.47141429046843 L 752 375.6531211274055 L 753 378.836627481378 L 754 382.02171591585557 L 755 385.20816888625086 L 756 388.39576875477735 L 757 391.5842978053145 L 758 394.77353825827674 L 759 397.9632722854901 L 760 401.15328202506896 L 761 404.3433495962953 L 762 407.5332571145022 L 763 410.722786705954 L 764 413.9117205227283 L 765 417.09984075759365 L 766 420.2869296588881 L 767 423.4727695453905 L 768 426.6571428211879 L 769 429.8398319905391 L 770 433.02061967272874 L 771 436.1992886169151 L 772 439.37562171696743 L 773 442.5494020262961 L 774 445.72041277266953 L 775 448.88843737302 L 776 452.0532594482356 L 777 455.2146628379409 L 778 458.37243161525987 L 779 461.52635010156314 L 780 464.67620288120077 L 781 467.82177481621414 L 782 470.9628510610309 L 783 474.0992170771375 L 784 477.2306586477346 L 785 480.356961892367 L 786 483.4779132815314 L 787 486.59329965126216 L 788 489.7029082176894 L 789 492.8065265915733 L 790 495.9039427928086 L 791 498.9949452649056 L 792 502.07932288943846 L 793 505.1568650004636 L 794 508.2273613989106 L 795 511.29060236693783 L 796 514.3463786822564 L 797 517.3944816324198 L 798 520.4347030290804 L 799 523.4668352222084 L 800 526.4906711142731 L 801 529.5060041743905 L 802 532.5126284524274 L 803 535.5103385930693 L 804 538.4989298498447 L 805 541.4781980991118 L 806 544.4479398539985 L 807 547.407952278302 L 808 550.3580332003411 L 809 553.2979811267663 L 810 556.2275952563219 L 811 559.1466754935591 L 812 562.055022462505 L 813 564.9524375202791 L 814 567.8387227706611 L 815 570.7136810776061 L 816 573.5771160787115 L 817 576.4288321986272 L 818 579.2686346624132 L 819 582.0963295088445 L 820 584.9117236036575 L 821 587.7146246527421 L 822 590.5048412152745 L 823 593.282182716794 L 824 596.046459462219 L 825 598.7974826488023 L 826 601.5350643790287 L 827 604.2590176734466 L 828 606.96915648344 L 829 609.6652957039346 L 830 612.3472511860424 L 831 615.0148397496382 L 832 617.6678791958702 L 833 620.3061883196061 L 834 622.9295869218085 L 835 625.5378958218432 L 836 628.1309368697162 L 837 630.708532958243 L 838 633.2705080351448 L 839 635.8166871150728 L 840 638.3468962915591 L 841 640.8609627488964 L 842 643.3587147739406 L 843 645.839981767838 L 844 648.304594257679 L 845 650.7523839080727 L 846 653.1831835326441 L 847 655.5968271054526 L 848 657.9931497723331 L 849 660.3719878621549 L 850 662.7331788980001 L 851 665.076561608262 L 852 667.4019759376591 L 853 669.7092630581685 L 854 671.9982653798716 L 855 674.2688265617198 L 856 676.5207915222124 L 857 678.7540064499875 L 858 680.968318814329 L 859 683.1635773755838 L 860 685.3396321954922 L 861 687.4963346474271 L 862 689.6335374265484 L 863 691.7510945598608 L 864 693.8488614161868 L 865 695.9266947160421 L 866 697.9844525414248 L 867 700.0219943455069 L 868 702.0391809622331 L 869 704.0358746158277 L 870 706.0119389302037 L 871 707.9672389382781 L 872 709.901641091189 L 873 711.8150132674191 L 874 713.7072247818178 L 875 715.5781463945282 L 876 717.4276503198141 L 877 719.255610234788 L 878 721.0619012880388 L 879 722.8464001081591 L 880 724.6089848121719 L 881 726.3495350138562 L 882 728.0679318319674 L 883 729.7640578983586 L 884 731.4377973659969 L 885 733.0890359168754 L 886 734.7176607698209 L 887 736.3235606881976 L 888 737.9066259875051 L 889 739.4667485428683 L 890 741.0038217964242 L 891 742.5177407645988 L 892 744.0084020452784 L 893 745.4757038248711 L 894 746.9195458852612 L 895 748.339829610655 L 896 749.7364579943148 L 897 751.109335645186 L 898 752.4583687944112 L 899 753.783465301736 L 900 755.0845346618007 L 901 756.3614880103233 L 902 757.6142381301685 L 903 758.8426994573044 L 904 760.0467880866468 L 905 761.2264217777905 L 906 762.3815199606258 L 907 763.5120037408412 L 908 764.6177959053135 L 909 765.6988209273794 L 910 766.755004971996 L 911 767.7862759007819 L 912 768.7925632769466 L 913 769.7737983700991 L 914 770.729914160944 L 915 771.6608453458575 L 916 772.5665283413496 L 917 773.4469012884049 L 918 774.3019040567087 L 919 775.131478248754 L 920 775.9355672038297 L 921 776.7141160018907 L 922 777.4670714673096 L 923 778.1943821725072 L 924 778.8959984414668 L 925 779.5718723531257 L 926 780.2219577446492 L 927 780.8462102145832 L 928 781.4445871258865 L 929 782.0170476088438 L 930 782.5635525638561 L 931 783.0840646641122 L 932 783.5785483581378 L 933 784.0469698722231 L 934 784.489297212731 L 935 784.9055001682806 L 936 785.2955503118119 L 937 785.6594210025269 L 938 785.9970873877093 L 939 786.3085264044219 L 940 786.5937167810819 L 941 786.8526390389136 L 942 787.0852754932793 L 943 787.2916102548863 L 944 787.4716292308732 L 945 787.6253201257716 L 946 787.7526724423464 L 947 787.8536774823124 L 948 787.9283283469288 L 949 787.9766199374701 L 950 787.9985489555745 L 951 787.994113903469 L 952 787.9633150840721 L 953 787.9061546009723 L 954 787.8226363582856 L 955 787.7127660603878 L 956 787.5765512115254 L 957 787.4140011153027 L 958 787.225126874047 L 959 787.0099413880496 L 960 786.7684593546851 L 961 786.5006972674074 L 962 786.2066734146233 L 963 785.8864078784434 L 964 785.5399225333099 L 965 785.1672410445037 L 966 784.7683888665268 L 967 784.3433932413648 L 968 783.8922831966254 L 969 783.4150895435563 L 970 782.9118448749405 L 971 782.3825835628706 L 972 781.8273417564002 L 973 781.2461573790763 L 974 780.6390701263479 L 975 780.0061214628549 L 976 779.347354619597 L 977 778.6628145909797 L 978 777.9525481317419 L 979 777.2166037537621 L 980 776.4550317227461 L 981 775.6678840547916 L 982 774.8552145128378 L 983 774.0170786029921 L 984 773.1535335707388 L 985 772.2646383970298 L 986 771.3504537942557 L 987 770.4110422021002 L 988 769.4464677832735 L 989 768.4567964191314 L 990 767.4420957051748 L 991 766.4024349464335 L 992 765.3378851527318 L 993 764.2485190338391 L 994 763.134410994504 L 995 761.9956371293714 L 996 760.8322752177858 L 997 759.6444047184789 L 998 758.4321067641422 L 999 757.1954641558859 L 1000 755.9345613575836 L 1001 754.6494844901022 L 1002 753.3403213254219 L 1003 752.0071612806394 L 1004 750.650095411861 L 1005 749.2692164079842 L 1006 747.8646185843661 L 1007 746.4363978763818 L 1008 744.984651832872 L 1009 743.5094796094811 L 1010 742.010981961883 L 1011 740.4892612389008 L 1012 738.9444213755156 L 1013 737.3765678857685 L 1014 735.7858078555528 L 1015 734.1722499353002 L 1016 732.5360043325613 L 1017 730.8771828044756 L 1018 729.1958986501411 L 1019 727.4922667028736 L 1020 725.7664033223657 L 1021 724.0184263867371 L 1022 722.2484552844847 L 1023 720.4566109063292 L 1024 718.6430156369554 L 1025 716.8077933466554 L 1026 714.9510693828677 L 1027 713.0729705616154 L 1028 711.173625158845 L 1029 709.2531629016644 L 1030 707.3117149594839 L 1031 705.349413935055 L 1032 703.3663938554155 L 1033 701.3627901627339 L 1034 699.3387397050594 L 1035 697.2943807269751 L 1036 695.2298528601544 L 1037 693.1452971138272 L 1038 691.0408558651445 L 1039 688.9166728494574 L 1040 686.7728931504982 L 1041 684.6096631904716 L 1042 682.4271307200534 L 1043 680.225444808299 L 1044 678.0047558324641 L 1045 675.7652154677294 L 1046 673.5069766768448 L 1047 671.2301936996805 L 1048 668.935022042692 L 1049 666.6216184682997 L 1050 664.2901409841805 L 1051 661.9407488324782 L 1052 659.5736024789244 L 1053 657.1888636018796 L 1054 654.7866950812908 L 1055 652.3672609875664 L 1056 649.9307265703699 L 1057 647.4772582473327 L 1058 645.0070235926895 L 1059 642.5201913258305 L 1060 640.0169312997787 L 1061 637.497414489589 L 1062 634.9618129806702 L 1063 632.4102999570314 L 1064 629.8430496894531 L 1065 627.2602375235846 L 1066 624.6620398679689 L 1067 622.0486341819915 L 1068 619.420198963761 L 1069 616.7769137379178 L 1070 614.1189590433717 L 1071 611.4465164209714 L 1072 608.7597684011046 L 1073 606.0588984912328 L 1074 603.3440911633542 L 1075 600.6155318414069 L 1076 597.8734068886032 L 1077 595.117903594701 L 1078 592.3492101632118 L 1079 589.5675156985451 L 1080 586.7730101930958 L 1081 583.965884514263 L 1082 581.1463303914164 L 1083 578.3145404028002 L 1084 575.47070796238 L 1085 572.6150273066323 L 1086 569.7476934812779 L 1087 566.8689023279615 L 1088 563.9788504708724 L 1089 561.077735303318 L 1090 558.1657549742398 L 1091 555.2431083746803 L 1092 552.3099951241987 L 1093 549.3666155572358 L 1094 546.4131707094333 L 1095 543.4498623038995 L 1096 540.4768927374338 L 1097 537.494465066702 L 1098 534.5027829943676 L 1099 531.5020508551786 L 1100 528.4924736020103 L 1101 525.4742567918701 L 1102 522.447606571853 L 1103 519.4127296650652 L 1104 516.3698333565028 L 1105 513.3191254788954 L 1106 510.2608143985097 L 1107 507.19510900091797 L 1108 504.1222186767335 L 1109 501.0423533073047 L 1110 497.9557232503832 L 1111 494.86253932575505 L 1112 491.7630128008418 L 1113 488.65735537627074 L 1114 485.5457791714146 L 1115 482.42849670990677 L 1116 479.3057209051211 L 1117 476.17766504563303 L 1118 473.0445427806505 L 1119 469.9065681054219 L 1120 466.76395534662004 L 1121 463.6169191477031 L 1122 460.46567445425376 L 1123 457.310436499301 L 1124 454.1514207886153 L 1125 450.98884308599224 L 1126 447.8229193985149 L 1127 444.6538659618001 L 1128 441.4818992252296 L 1129 438.3072358371659 L 1130 435.13009263015704 L 1131 431.9506866061233 L 1132 428.76923492153816 L 1133 425.58595487259555 L 1134 422.40106388036855 L 1135 419.2147794759592 L 1136 416.0273192856401 L 1137 412.83890101599343 L 1138 409.6497424390369 L 1139 406.4600613773527 L 1140 403.2700756892091 L 1141 400.08000325368073 L 1142 396.8900619557672 L 1143 393.7004696715104 L 1144 390.5114442531166 L 1145 387.3232035140724 L 1146 384.13596521427064 L 1147 380.9499470451367 L 1148 377.7653666147599 L 1149 374.5824414330305 L 1150 371.4013888967832 L 1151 368.2224262749511 L 1152 365.04577069372215 L 1153 361.87163912171195 L 1154 358.7002483551438 L 1155 355.5318150030414 L 1156 352.3665554724342 L 1157 349.20468595357585 L 1158 346.0464224051811 L 1159 342.89198053967147 L 1160 339.74157580844434 L 1161 336.59542338715727 L 1162 333.4537381610307 L 1163 330.3167347101715 L 1164 327.18462729491614 L 1165 324.0576298411992 L 1166 320.9359559259378 L 1167 317.81981876244726 L 1168 314.7094311858773 L 1169 311.60500563867527 L 1170 308.50675415607634 L 1171 305.41488835162056 L 1172 302.3296194027018 L 1173 299.25115803614057 L 1174 296.1797145137936 L 1175 293.1154986181923 L 1176 290.058719638214 L 1177 287.00958635478764 L 1178 283.96830702663334 L 1179 280.9350893760403 L 1180 277.9101405746755 L 1181 274.89366722943623 L 1182 271.88587536833825 L 1183 268.88697042644327 L 1184 265.89715723182826 L 1185 262.91663999159493 L 1186 259.945622277922 L 1187 256.98430701416294 L 1188 254.03289646098318 L 1189 251.0915922025473 L 1190 248.16059513275027 L 1191 245.24010544149635 L 1192 242.33032260102573 L 1193 239.43144535228976 L 1194 236.54367169137942 L 1195 233.66719885599804 L 1196 230.80222331199246 L 1197 227.9489407399335 L 1198 225.1075460217508 L 1199 222.2782332274222 L 1200 219.46119560171798 L 1201 216.65662555100442 L 1202 213.86471463009886 L 1203 211.08565352918833 L 1204 208.31963206080505 L 1205 205.56683914686175 L 1206 202.82746280574827 L 1207 200.10169013948914 L 1208 197.38970732096655 L 1209 194.69169958120125 L 1210 192.00785119670326 L 1211 189.33834547688508 L 1212 186.6833647515415 L 1213 184.04309035839628 L 1214 181.41770263071615 L 1215 178.80738088499587 L 1216 176.21230340870767 L 1217 173.6326474481261 L 1218 171.0685891962214 L 1219 168.52030378062545 L 1220 165.9879652516703 L 1221 163.47174657049976 L 1222 160.9718195972584 L 1223 158.48835507934973 L 1224 156.02152263977658 L 1225 153.57149076555467 L 1226 151.13842679620527 L 1227 148.72249691232528 L 1228 146.32386612423687 L 1229 143.94269826071877 L 1230 141.5791559578139 L 1231 139.23340064772287 L 1232 136.9055925477777 L 1233 134.59589064949893 L 1234 132.30445270773606 L 1235 130.03143522989234 L 1236 127.77699346523741 L 1237 125.54128139430014 L 1238 123.32445171835423 L 1239 121.12665584898741 L 1240 118.9480438977605 L 1241 116.7887646659542 L 1242 114.6489656344059 L 1243 112.5287929534365 L 1244 110.42839143286938 L 1245 108.34790453213765 L 1246 106.28747435048723 L 1247 104.24724161727079 L 1248 102.22734568233619 L 1249 100.22792450650832 L 1250 98.2491146521661 L 1251 96.29105127391671 L 1252 94.35386810936194 L 1253 92.43769746996531 L 1254 90.54267023201493 L 1255 88.66891582768415 L 1256 86.81656223619171 L 1257 84.9857359750597 L 1258 83.17656209147435 L 1259 81.3891641537424 L 1260 79.62366424285312 L 1261 77.88018294413979 L 1262 76.15883933904308 L 1263 74.45975099697824 L 1264 72.78303396730428 L 1265 71.12880277139936 L 1266 69.49717039483653 L 1267 67.88824827966812 L 1268 66.30214631681412 L 1269 64.7389728385561 L 1270 63.19883461113824 L 1271 61.68183682747468 L 1272 60.18808309996621 L 1273 58.71767545342112 L 1274 57.27071431808878 L 1275 55.84729852279895 L 1276 54.44752528821249 L 1277 53.071490220180465 L 1278 51.7192873032144 L 1279 50.39100889406785 L 1280 49.08674571542673 L 1281 47.806586849713995 L 1282 46.55061973300502 L 1283 45.318930149055575 L 1284 44.11160222344273 L 1285 42.92871841781874 L 1286 41.77035952427963 L 1287 40.636604659846 L 1288 39.527531261059835 L 1289 38.4432150786954 L 1290 37.38373017258539 L 1291 36.34914890656262 L 1292 35.33954194351719 L 1293 34.35497824057103 L 1294 33.39552504436699 L 1295 32.4612478864762 L 1296 31.55221057892254 L 1297 30.668475209823782 L 1298 29.810102139151297 L 1299 28.977149994606805 L 1300 28.169675667619117 L 1301 27.387734309457187 L 1302 26.631379327463947 L 1303 25.90066238140821 L 1304 25.195633379956632 L 1305 24.516340477264578 L 1306 23.86283006968722 L 1307 23.23514679261052 L 1308 22.633333517403116 L 1309 22.0574313484874 L 1310 21.507479620532422 L 1311 20.983515895767596 L 1312 20.48557596141643 L 1313 20.01369382725295 L 1314 19.56790172327834 L 1315 19.148230097519956 L 1316 18.75470761395127 L 1317 18.387361150534502 L 1318 18.046215797384548 L 1319 17.731294855055353 L 1320 17.44261983294865 L 1321 17.180210447844615 L 1322 16.94408462255541 L 1323 16.734258484700774 L 1324 16.550746365606642 L 1325 16.393560799326337 L 1326 16.262712521784465 L 1327 16.158210470043514 L 1328 16.0800617816937 L 1329 16.02827179436514 L 1330 16.00284404536353 L 1331 16.003780271428468 L 1332 16.031080408614798 L 1333 16.08474259229706 L 1334 16.164763157296704 L 1335 16.271136638132703 L 1336 16.403855769394397 L 1337 16.562911486238193 L 1338 16.748292925006467 L 1339 16.95998742396955 L 1340 17.197980524190655 L 1341 17.462255970513297 L 1342 17.75279571267174 L 1343 18.069579906523416 L 1344 18.412586915404972 L 1345 18.78179331160942 L 1346 19.17717387798666 L 1347 19.59870160966574 L 1348 20.046347715899287 L 1349 20.520081622029977 L 1350 21.019870971578655 L 1351 21.545681628454588 L 1352 22.097477679286897 L 1353 22.675221435877233 L 1354 23.278873437774394 L 1355 23.908392454969032 L 1356 24.56373549071003 L 1357 25.244857784440853 L 1358 25.951712814857274 L 1359 26.68425230308435 L 1360 27.442426215974194 L 1361 28.226182769523177 L 1362 29.035468432408777 L 1363 29.870227929645864 L 1364 30.730404246362355 L 1365 31.615938631692416 L 1366 32.52677060279041 L 1367 33.46283794896135 L 1368 34.42407673590981 L 1369 35.410421310106926 L 1370 36.421804303274655 L 1371 37.458156636986985 L 1372 38.519407527387614 L 1373 39.6054844900255 L 1374 40.71631334480503 L 1375 41.851818221052554 L 1376 43.0119215626986 L 1377 44.196544133574946 L 1378 45.40560502282693 L 1379 46.639021650438394 L 1380 47.89670977287386 L 1381 49.17858348883118 L 1382 50.48455524510911 L 1383 51.81453584258725 L 1384 53.16843444231819 L 1385 54.54615857173252 L 1386 55.94761413095341 L 1387 57.372705399225595 L 1388 58.82133504145196 L 1389 60.293404114841906 L 1390 61.78881207566923 L 1391 63.30745678613948 L 1392 64.84923452136627 L 1393 66.41403997645443 L 1394 68.0017662736945 L 1395 69.61230496986144 L 1396 71.24554606362113 L 1397 72.90137800304439 L 1398 74.57968769322542 L 1399 76.28036050400698 L 1400 78.00328027780819 L 1401 79.74832933756039 L 1402 81.5153884947432 L 1403 83.30433705752546 L 1404 85.1150528390088 L 1405 86.94741216557276 L 1406 88.80128988532255 L 1407 90.67655937663551 L 1408 92.5730925568115 L 1409 94.49075989081967 L 1410 96.42943040014632 L 1411 98.38897167174088 L 1412 100.36924986705964 L 1413 102.3701297312075 L 1414 104.39147460217453 L 1415 106.43314642017248 L 1416 108.49500573706274 L 1417 110.57691172588125 L 1418 112.67872219045705 L 1419 114.80029357512439 L 1420 116.9414809745283 L 1421 119.10213814351988 L 1422 121.28211750714757 L 1423 123.48127017073517 L 1424 125.69944593005152 L 1425 127.93649328157011 L 1426 130.19225943281634 L 1427 132.46659031280387 L 1428 134.7593305825581 L 1429 137.07032364572382 L 1430 139.39941165926433 L 1431 141.74643554423983 L 1432 144.11123499667337 L 1433 146.49364849849974 L 1434 148.89351332859738 L 1435 151.31066557390275 L 1436 153.74494014060375 L 1437 156.19617076541888 L 1438 158.66419002695127 L 1439 161.14882935712396 L 1440 163.64991905269343 L 1441 166.1672882868405 L 1442 168.70076512083844 L 1443 171.25017651579438 L 1444 173.81534834447143 L 1445 176.39610540317932 L 1446 178.99227142374176 L 1447 181.60366908553559 L 1448 184.23012002760188 L 1449 186.87144486082903 L 1450 189.5274631802026 L 1451 192.19799357713072 L 1452 194.8828536518321 L 1453 197.5818600257949 L 1454 200.29482835430136 L 1455 203.02157333901891 L 1456 205.76190874065685 L 1457 208.51564739168413 L 1458 211.2826012091168 L 1459 214.06258120736166 L 1460 216.8553975111251 L 1461 219.66085936838138 L 1462 222.47877516340148 L 1463 225.30895242984104 L 1464 228.15119786388374 L 1465 231.00531733744762 L 1466 233.87111591144185 L 1467 236.74839784908187 L 1468 239.63696662925844 L 1469 242.53662495996016 L 1470 245.4471747917493 L 1471 248.3684173312863 L 1472 251.30015305491142 L 1473 254.2421817222697 L 1474 257.19430238998825 L 1475 260.15631342540087 L 1476 263.12801252032 L 1477 266.1091967048547 L 1478 269.0996623612716 L 1479 272.0992052379058 L 1480 275.10762046310884 L 1481 278.12470255924256 L 1482 281.150245456713 L 1483 284.18404250804554 L 1484 287.22588650199884 L 1485 290.2755696777185 L 1486 293.3328837389243 L 1487 296.3976198681414 L 1488 299.4695687409599 L 1489 302.54852054033256 L 1490 305.63426497090563 L 1491 308.72659127338216 L 1492 311.8252882389176 L 1493 314.9301442235431 L 1494 318.040947162625 L 1495 321.1574845853461 L 1496 324.2795436292186 L 1497 327.4069110546227 L 1498 330.5393732593711 L 1499 333.6767162932987 L 1500 336.81872587287324 L 1501 339.96518739583485 L 1502 343.1158859558511 L 1503 346.2706063571958 L 1504 349.4291331294471 L 1505 352.59125054220453 L 1506 355.75674261982397 L 1507 358.9253931561664 L 1508 362.0969857293693 L 1509 365.2713037166253 L 1510 368.4481303089789 L 1511 371.62724852613405 L 1512 374.808441231275 L 1513 377.99149114589693 L 1514 381.17618086464375 L 1515 384.3622928701614 L 1516 387.54960954795143 L 1517 390.7379132012352 L 1518 393.9269860658227 L 1519 397.11661032498597 L 1520 400.3065681243371 L 1521 403.49664158670487 L 1522 406.6866128270203 L 1523 409.87626396719565 L 1524 413.06537715100615 L 1525 416.25373455897005 L 1526 419.4411184232259 L 1527 422.62731104240675 L 1528 425.8120947965069 L 1529 428.9952521617496 L 1530 432.176565725441 L 1531 435.355818200821 L 1532 438.5327924419036 L 1533 441.7072714583086 L 1534 444.8790384300825 L 1535 448.04787672250507 L 1536 451.21356990088975 L 1537 454.3759017453636 L 1538 457.53465626563593 L 1539 460.68961771575084" stroke-linecap="round" stroke-linejoin="round" stroke-miterlimit="10" stroke-width="4"/></g></svg>